<svg width="256" height="256" viewBox="0 0 256 256" fill="none" xmlns="http://www.w3.org/2000/svg">
<rect width="256" height="256" fill="white"/>
<path d="M47.75 211C47.75 211 34.75 211 34.75 198C34.75 185 47.75 146 112.75 146C177.75 146 190.75 185 190.75 198C190.75 211 177.75 211 177.75 211H47.75Z" fill="#2491A9"/>
<path d="M112.75 133C134.289 133 151.75 115.539 151.75 94C151.75 72.4609 134.289 55 112.75 55C91.2109 55 73.75 72.4609 73.75 94C73.75 115.539 91.2109 133 112.75 133Z" fill="#2491A9"/>
<path d="M174.024 103.875C172.551 104.633 170.882 103.309 171.179 101.619L174.342 83.5873L160.913 70.7901C159.658 69.5942 160.308 67.4075 161.989 67.1686L180.665 64.5156L188.992 48.0207C189.742 46.5348 191.774 46.5348 192.524 48.0207L200.851 64.5156L219.526 67.1686C221.208 67.4075 221.857 69.5942 220.602 70.7901L207.173 83.5873L210.337 101.619C210.633 103.309 208.965 104.633 207.492 103.875L190.758 95.2746L174.024 103.875Z" fill="url(#paint0_linear_21_280)"/>
<defs>
<linearGradient id="paint0_linear_21_280" x1="160.258" y1="46.9062" x2="221.258" y2="46.9062" gradientUnits="userSpaceOnUse">
<stop stop-color="#F2BA01"/>
<stop offset="0.142857" stop-color="#F5B203"/>
<stop offset="0.285714" stop-color="#F8A908"/>
<stop offset="0.428571" stop-color="#FBA00F"/>
<stop offset="0.571429" stop-color="#FD9817"/>
<stop offset="0.714286" stop-color="#FE8F1E"/>
<stop offset="0.857143" stop-color="#FF8624"/>
<stop offset="1" stop-color="#FF7D2A"/>
</linearGradient>
</defs>
</svg>
